<mxfile host="app.diagrams.net" agent="Mozilla/5.0 (Windows NT 10.0; Win64; x64) AppleWebKit/537.36 (KHTML, like Gecko) Chrome/128.0.0.0 Safari/537.36 OPR/114.0.0.0" version="24.8.6">
  <diagram name="Página-1" id="Tl308OOpt4gTflELi540">
    <mxGraphModel dx="1009" dy="539" grid="1" gridSize="10" guides="1" tooltips="1" connect="1" arrows="1" fold="1" page="1" pageScale="1" pageWidth="827" pageHeight="1169" math="0" shadow="0">
      <root>
        <mxCell id="0" />
        <mxCell id="1" parent="0" />
        <mxCell id="M5kyjA1hZ_9X7ufiuXUh-1" value="+---------------------+          +-------------------+&#xa;|       Cliente       |          |    Producto       |&#xa;+---------------------+          +-------------------+&#xa;| - nombre: string    |          | - nombre: string  |&#xa;| - email: string     |          | - precio: double  |&#xa;|                     |          |                   |&#xa;+---------------------+          +-------------------+&#xa;| + Cliente()         |          | + Producto()      |&#xa;| + mostrar(): void   |          | + mostrar(): void |&#xa;+---------------------+          +-------------------+&#xa;          |                              |&#xa;          |                              |&#xa;          +---------------+--------------+&#xa;                          |&#xa;                          |&#xa;               +-------------------+&#xa;               |     Carrito       |&#xa;               +-------------------+&#xa;               | - total: double   |&#xa;               |                   |&#xa;               +-------------------+&#xa;               | + agregar()       |&#xa;               | + mostrarTotal()  |&#xa;               +-------------------+" style="text;whiteSpace=wrap;labelBackgroundColor=none;" vertex="1" parent="1">
          <mxGeometry x="150" y="40" width="420" height="510" as="geometry" />
        </mxCell>
      </root>
    </mxGraphModel>
  </diagram>
</mxfile>
